<svg width="464" height="177" viewBox="0 0 464 177" fill="none" xmlns="http://www.w3.org/2000/svg">
<path d="M43.3013 111.603C48.9877 114.886 55.265 117.016 61.775 117.874C68.2849 118.731 74.8999 118.297 81.2422 116.598C87.5846 114.898 93.5301 111.966 98.7393 107.969C103.949 103.972 108.319 98.9877 111.603 93.3013C114.886 87.6149 117.016 81.3375 117.874 74.8276C118.731 68.3177 118.297 61.7027 116.598 55.3603C114.898 49.018 111.966 43.0724 107.969 37.8632C103.972 32.654 98.9877 28.283 93.3013 25L68.3013 68.3013L43.3013 111.603Z" fill="white"/>
<path d="M93.3014 65C87.615 61.717 81.3376 59.5861 74.8277 58.7291C68.3178 57.872 61.7028 58.3056 55.3604 60.005C49.0181 61.7044 43.0726 64.6364 37.8633 68.6336C32.6541 72.6308 28.2832 77.6149 25.0001 83.3013C21.7171 88.9877 19.5862 95.2651 18.7292 101.775C17.8721 108.285 18.3057 114.9 20.0051 121.242C21.7045 127.585 24.6365 133.53 28.6337 138.739C32.6309 143.949 37.615 148.32 43.3014 151.603L68.3014 108.301L93.3014 65Z" fill="url(#paint0_linear_11_118)"/>
<path d="M149.154 110.61C145.169 110.61 141.448 109.878 137.991 108.414C134.534 106.95 131.545 104.856 129.024 102.131L135.734 94.933C138.052 97.3323 140.35 99.1013 142.627 100.24C144.945 101.338 147.405 101.887 150.008 101.887C151.431 101.887 152.651 101.724 153.668 101.399C154.685 101.033 155.457 100.525 155.986 99.874C156.555 99.1827 156.84 98.3897 156.84 97.495C156.84 96.5597 156.433 95.787 155.62 95.177C154.847 94.567 153.526 94.018 151.655 93.53L142.749 91.212C139.78 90.3987 137.523 89.077 135.978 87.247C134.433 85.417 133.66 83.1397 133.66 80.415C133.66 77.5683 134.331 75.1283 135.673 73.095C137.056 71.0617 139.008 69.496 141.529 68.398C144.05 67.2593 147.039 66.69 150.496 66.69C154.075 66.69 157.511 67.3407 160.805 68.642C164.14 69.9433 166.986 71.753 169.345 74.071L162.879 81.391C160.805 79.3577 158.69 77.853 156.535 76.877C154.38 75.901 152.062 75.413 149.581 75.413C147.71 75.413 146.226 75.7587 145.128 76.45C144.03 77.1007 143.481 78.0157 143.481 79.195C143.481 80.0897 143.827 80.8217 144.518 81.391C145.25 81.9197 146.429 82.4077 148.056 82.855L156.413 84.868C159.91 85.6813 162.554 87.0437 164.343 88.955C166.173 90.8663 167.088 93.225 167.088 96.031C167.088 98.959 166.336 101.521 164.831 103.717C163.367 105.913 161.293 107.621 158.609 108.841C155.925 110.02 152.773 110.61 149.154 110.61ZM165.371 122.444L174.887 77.731H184.464L184.159 79.134C186.355 77.914 188.714 77.304 191.235 77.304C193.96 77.304 196.4 77.975 198.555 79.317C200.711 80.6183 202.419 82.4077 203.679 84.685C204.981 86.9217 205.631 89.4633 205.631 92.31C205.631 94.8313 205.164 97.19 204.228 99.386C203.293 101.582 201.992 103.514 200.324 105.181C198.698 106.808 196.786 108.089 194.59 109.024C192.435 109.959 190.097 110.427 187.575 110.427C185.786 110.427 184.098 110.163 182.512 109.634C180.967 109.065 179.584 108.272 178.364 107.255L175.07 122.444H165.371ZM187.209 102.009C188.917 102.009 190.442 101.623 191.784 100.85C193.126 100.037 194.184 98.959 194.956 97.617C195.77 96.275 196.176 94.7907 196.176 93.164C196.176 91.7407 195.851 90.4597 195.2 89.321C194.55 88.1823 193.635 87.2877 192.455 86.637C191.317 85.9863 190.015 85.661 188.551 85.661C187.413 85.661 186.335 85.844 185.318 86.21C184.302 86.5353 183.366 87.0437 182.512 87.735L180.133 98.959C180.947 99.8943 181.963 100.647 183.183 101.216C184.403 101.745 185.745 102.009 187.209 102.009ZM218.488 110.305C215.153 110.305 212.49 109.492 210.497 107.865C208.545 106.238 207.569 104.063 207.569 101.338C207.569 99.1013 208.118 97.19 209.216 95.604C210.314 94.018 211.88 92.798 213.913 91.944C215.987 91.09 218.447 90.663 221.294 90.663C222.677 90.663 224.059 90.785 225.442 91.029C226.865 91.2323 228.228 91.5373 229.529 91.944L229.712 91.029C230.119 89.1177 229.793 87.6943 228.736 86.759C227.719 85.783 225.991 85.295 223.551 85.295C222.453 85.295 221.192 85.4577 219.769 85.783C218.386 86.0677 216.678 86.5557 214.645 87.247L212.327 79.927C214.808 78.9917 217.166 78.3003 219.403 77.853C221.64 77.4057 223.754 77.182 225.747 77.182C229.163 77.182 231.969 77.731 234.165 78.829C236.402 79.927 237.967 81.513 238.862 83.587C239.757 85.6203 239.899 88.0807 239.289 90.968L235.263 110H225.686L226.052 108.231C224.791 108.963 223.551 109.492 222.331 109.817C221.111 110.142 219.83 110.305 218.488 110.305ZM221.965 103.473C222.941 103.473 223.876 103.371 224.771 103.168C225.666 102.924 226.52 102.599 227.333 102.192L228.248 97.983C226.215 97.3323 224.202 97.007 222.209 97.007C220.46 97.007 219.098 97.312 218.122 97.922C217.187 98.532 216.719 99.4063 216.719 100.545C216.719 101.44 217.187 102.151 218.122 102.68C219.057 103.209 220.338 103.473 221.965 103.473ZM246.535 110L244.705 77.731H253.733L254.343 96.702L263.981 77.731H272.033L273.68 96.702L282.342 77.731H291.492L276.059 110H266.726L265.262 91.273L255.807 110H246.535ZM288.149 110L294.981 77.731H304.68L304.253 79.744C306.856 78.0767 309.662 77.243 312.671 77.243C315.233 77.243 317.389 77.8327 319.137 79.012C320.886 80.1913 322.106 81.7977 322.797 83.831C323.529 85.8643 323.611 88.1823 323.041 90.785L318.954 110H309.255L313.159 91.7C313.525 89.87 313.261 88.406 312.366 87.308C311.472 86.1693 310.13 85.6 308.34 85.6C307.202 85.6 306.144 85.8033 305.168 86.21C304.192 86.576 303.298 87.1657 302.484 87.979L297.848 110H288.149Z" fill="white"/>
<path d="M304.061 132L313.15 89.3H333.036C335.72 89.3 338.058 89.849 340.051 90.947C342.084 92.0043 343.67 93.4887 344.809 95.4C345.948 97.2707 346.517 99.4463 346.517 101.927C346.517 104.652 345.785 107.132 344.321 109.369C342.898 111.606 340.966 113.395 338.526 114.737C336.086 116.038 333.361 116.689 330.352 116.689H317.542L314.309 132H304.061ZM319.433 108.027H330.169C331.308 108.027 332.304 107.803 333.158 107.356C334.053 106.868 334.744 106.238 335.232 105.465C335.761 104.652 336.025 103.757 336.025 102.781C336.025 101.398 335.578 100.3 334.683 99.487C333.829 98.6737 332.67 98.267 331.206 98.267H321.507L319.433 108.027ZM363.333 132.61C360.242 132.61 357.477 131.939 355.037 130.597C352.597 129.214 350.665 127.344 349.242 124.985C347.818 122.626 347.107 119.983 347.107 117.055C347.107 114.615 347.574 112.317 348.51 110.162C349.486 107.966 350.807 106.055 352.475 104.428C354.183 102.761 356.135 101.459 358.331 100.524C360.567 99.5887 362.926 99.121 365.407 99.121C368.497 99.121 371.242 99.8123 373.642 101.195C376.082 102.537 378.013 104.387 379.437 106.746C380.86 109.064 381.572 111.707 381.572 114.676C381.572 117.116 381.084 119.414 380.108 121.569C379.172 123.724 377.851 125.636 376.143 127.303C374.475 128.97 372.544 130.272 370.348 131.207C368.152 132.142 365.813 132.61 363.333 132.61ZM363.76 124.07C364.898 124.07 365.956 123.846 366.932 123.399C367.948 122.911 368.843 122.26 369.616 121.447C370.388 120.634 370.978 119.678 371.385 118.58C371.832 117.482 372.056 116.323 372.056 115.103C372.056 113.639 371.751 112.358 371.141 111.26C370.531 110.121 369.677 109.247 368.579 108.637C367.521 107.986 366.301 107.661 364.919 107.661C363.78 107.661 362.702 107.905 361.686 108.393C360.71 108.84 359.835 109.471 359.063 110.284C358.29 111.097 357.68 112.053 357.233 113.151C356.826 114.249 356.623 115.408 356.623 116.628C356.623 118.051 356.928 119.332 357.538 120.471C358.148 121.61 358.981 122.504 360.039 123.155C361.137 123.765 362.377 124.07 363.76 124.07ZM382.742 132L389.574 99.731H399.273L392.441 132H382.742ZM395.613 96.742C394.271 96.742 393.132 96.2947 392.197 95.4C391.302 94.4647 390.855 93.326 390.855 91.984C390.855 90.886 391.119 89.8693 391.648 88.934C392.217 87.9987 392.949 87.2667 393.844 86.738C394.779 86.1687 395.776 85.884 396.833 85.884C398.175 85.884 399.293 86.3517 400.188 87.287C401.123 88.1817 401.591 89.3 401.591 90.642C401.591 91.74 401.306 92.7567 400.737 93.692C400.208 94.5867 399.476 95.3187 398.541 95.888C397.646 96.4573 396.67 96.742 395.613 96.742ZM398.409 132L405.241 99.731H414.94L414.513 101.744C417.116 100.077 419.922 99.243 422.931 99.243C425.493 99.243 427.648 99.8327 429.397 101.012C431.146 102.191 432.366 103.798 433.057 105.831C433.789 107.864 433.87 110.182 433.301 112.785L429.214 132H419.515L423.419 113.7C423.785 111.87 423.521 110.406 422.626 109.308C421.731 108.169 420.389 107.6 418.6 107.6C417.461 107.6 416.404 107.803 415.428 108.21C414.452 108.576 413.557 109.166 412.744 109.979L408.108 132H398.409ZM450.204 132.366C446.341 132.366 443.555 131.451 441.847 129.621C440.18 127.75 439.712 125.087 440.444 121.63L443.372 107.966H436.967L438.675 99.731H445.08L446.849 91.435L456.975 89.3L454.718 99.731H463.563L461.855 107.966H453.01L450.387 120.105C450.102 121.569 450.245 122.626 450.814 123.277C451.424 123.928 452.542 124.253 454.169 124.253C454.86 124.253 455.511 124.212 456.121 124.131C456.772 124.05 457.463 123.928 458.195 123.765L456.487 131.695C455.714 131.858 454.718 132 453.498 132.122C452.319 132.285 451.221 132.366 450.204 132.366Z" fill="url(#paint1_linear_11_118)"/>
<defs>
<linearGradient id="paint0_linear_11_118" x1="25.0001" y1="83.3013" x2="111.603" y2="133.301" gradientUnits="userSpaceOnUse">
<stop stop-color="#A838FF"/>
<stop offset="0.947917" stop-color="#FF3898"/>
</linearGradient>
<linearGradient id="paint1_linear_11_118" x1="304" y1="70" x2="461" y2="151" gradientUnits="userSpaceOnUse">
<stop stop-color="#A838FF"/>
<stop offset="1" stop-color="#FF3898"/>
</linearGradient>
</defs>
</svg>
