<svg width="186" height="47" viewBox="0 0 186 47" fill="none" xmlns="http://www.w3.org/2000/svg">
<rect x="29" y="29" width="11" height="11" fill="#823CFA"/>
<rect x="7" y="7" width="11" height="11" fill="#E648F5"/>
<rect x="18" y="7" width="11" height="11" fill="#A335DE"/>
<rect x="18" y="18" width="11" height="11" fill="#DE35A4"/>
<rect x="7" y="18" width="11" height="11" fill="#FA3C5A"/>
<path d="M52.68 33.36C51.472 33.36 50.384 33.16 49.416 32.76C48.456 32.352 47.66 31.776 47.028 31.032C46.404 30.288 45.996 29.404 45.804 28.38L47.604 28.08C47.892 29.2 48.5 30.08 49.428 30.72C50.356 31.352 51.464 31.668 52.752 31.668C53.6 31.668 54.36 31.536 55.032 31.272C55.704 31 56.232 30.616 56.616 30.12C57 29.624 57.192 29.036 57.192 28.356C57.192 27.908 57.112 27.528 56.952 27.216C56.792 26.896 56.58 26.632 56.316 26.424C56.052 26.216 55.764 26.044 55.452 25.908C55.14 25.764 54.836 25.648 54.54 25.56L50.16 24.252C49.632 24.1 49.144 23.908 48.696 23.676C48.248 23.436 47.856 23.152 47.52 22.824C47.192 22.488 46.936 22.096 46.752 21.648C46.568 21.2 46.476 20.688 46.476 20.112C46.476 19.136 46.732 18.292 47.244 17.58C47.756 16.868 48.456 16.32 49.344 15.936C50.232 15.552 51.244 15.364 52.38 15.372C53.532 15.372 54.56 15.576 55.464 15.984C56.376 16.392 57.128 16.976 57.72 17.736C58.312 18.488 58.704 19.38 58.896 20.412L57.048 20.748C56.928 19.996 56.652 19.344 56.22 18.792C55.788 18.24 55.236 17.816 54.564 17.52C53.9 17.216 53.168 17.06 52.368 17.052C51.592 17.052 50.9 17.184 50.292 17.448C49.692 17.704 49.216 18.056 48.864 18.504C48.512 18.952 48.336 19.464 48.336 20.04C48.336 20.624 48.496 21.092 48.816 21.444C49.144 21.796 49.544 22.072 50.016 22.272C50.496 22.472 50.96 22.636 51.408 22.764L54.792 23.76C55.144 23.856 55.556 23.996 56.028 24.18C56.508 24.356 56.972 24.612 57.42 24.948C57.876 25.276 58.252 25.708 58.548 26.244C58.844 26.78 58.992 27.46 58.992 28.284C58.992 29.084 58.832 29.8 58.512 30.432C58.2 31.064 57.756 31.596 57.18 32.028C56.612 32.46 55.944 32.788 55.176 33.012C54.416 33.244 53.584 33.36 52.68 33.36ZM67.2891 33.36C66.0971 33.36 65.0891 33.06 64.2651 32.46C63.4411 31.852 62.8171 31.032 62.3931 30C61.9691 28.96 61.7571 27.796 61.7571 26.508C61.7571 25.196 61.9691 24.028 62.3931 23.004C62.8251 21.972 63.4571 21.16 64.2891 20.568C65.1211 19.976 66.1451 19.68 67.3611 19.68C68.5451 19.68 69.5611 19.98 70.4091 20.58C71.2571 21.18 71.9051 21.996 72.3531 23.028C72.8091 24.06 73.0371 25.22 73.0371 26.508C73.0371 27.804 72.8091 28.968 72.3531 30C71.8971 31.032 71.2411 31.852 70.3851 32.46C69.5291 33.06 68.4971 33.36 67.2891 33.36ZM61.4571 38.76V20.04H63.0411V29.796H63.2331V38.76H61.4571ZM67.1091 31.716C68.0131 31.716 68.7651 31.488 69.3651 31.032C69.9651 30.576 70.4131 29.956 70.7091 29.172C71.0131 28.38 71.1651 27.492 71.1651 26.508C71.1651 25.532 71.0171 24.652 70.7211 23.868C70.4251 23.084 69.9731 22.464 69.3651 22.008C68.7651 21.552 68.0011 21.324 67.0731 21.324C66.1691 21.324 65.4171 21.544 64.8171 21.984C64.2251 22.424 63.7811 23.036 63.4851 23.82C63.1891 24.596 63.0411 25.492 63.0411 26.508C63.0411 27.508 63.1891 28.404 63.4851 29.196C63.7811 29.98 64.2291 30.596 64.8291 31.044C65.4291 31.492 66.1891 31.716 67.1091 31.716ZM79.3802 33.36C78.4042 33.36 77.5842 33.184 76.9202 32.832C76.2642 32.48 75.7722 32.012 75.4442 31.428C75.1162 30.844 74.9522 30.208 74.9522 29.52C74.9522 28.816 75.0922 28.216 75.3722 27.72C75.6602 27.216 76.0482 26.804 76.5362 26.484C77.0322 26.164 77.6042 25.92 78.2522 25.752C78.9082 25.592 79.6322 25.452 80.4242 25.332C81.2242 25.204 82.0042 25.096 82.7642 25.008C83.5322 24.912 84.2042 24.82 84.7802 24.732L84.1562 25.116C84.1802 23.836 83.9322 22.888 83.4122 22.272C82.8922 21.656 81.9882 21.348 80.7002 21.348C79.8122 21.348 79.0602 21.548 78.4442 21.948C77.8362 22.348 77.4082 22.98 77.1602 23.844L75.4442 23.34C75.7402 22.18 76.3362 21.28 77.2322 20.64C78.1282 20 79.2922 19.68 80.7242 19.68C81.9082 19.68 82.9122 19.904 83.7362 20.352C84.5682 20.792 85.1562 21.432 85.5002 22.272C85.6602 22.648 85.7642 23.068 85.8122 23.532C85.8602 23.996 85.8842 24.468 85.8842 24.948V33H84.3122V29.748L84.7682 29.94C84.3282 31.052 83.6442 31.9 82.7162 32.484C81.7882 33.068 80.6762 33.36 79.3802 33.36ZM79.5842 31.836C80.4082 31.836 81.1282 31.688 81.7442 31.392C82.3602 31.096 82.8562 30.692 83.2322 30.18C83.6082 29.66 83.8522 29.076 83.9642 28.428C84.0602 28.012 84.1122 27.556 84.1202 27.06C84.1282 26.556 84.1322 26.18 84.1322 25.932L84.8042 26.28C84.2042 26.36 83.5522 26.44 82.8482 26.52C82.1522 26.6 81.4642 26.692 80.7842 26.796C80.1122 26.9 79.5042 27.024 78.9602 27.168C78.5922 27.272 78.2362 27.42 77.8922 27.612C77.5482 27.796 77.2642 28.044 77.0402 28.356C76.8242 28.668 76.7162 29.056 76.7162 29.52C76.7162 29.896 76.8082 30.26 76.9922 30.612C77.1842 30.964 77.4882 31.256 77.9042 31.488C78.3282 31.72 78.8882 31.836 79.5842 31.836ZM91.2994 33L87.3394 20.028L89.1034 20.04L92.1754 30.108L95.2594 20.04H96.8674L99.9514 30.108L103.047 20.04H104.799L100.839 33H99.3034L96.0634 22.68L92.8354 33H91.2994ZM116.321 33V26.388C116.321 25.668 116.253 25.008 116.117 24.408C115.981 23.8 115.761 23.272 115.457 22.824C115.161 22.368 114.773 22.016 114.293 21.768C113.821 21.52 113.245 21.396 112.565 21.396C111.941 21.396 111.389 21.504 110.909 21.72C110.437 21.936 110.037 22.248 109.709 22.656C109.389 23.056 109.145 23.544 108.977 24.12C108.809 24.696 108.725 25.352 108.725 26.088L107.477 25.812C107.477 24.484 107.709 23.368 108.173 22.464C108.637 21.56 109.277 20.876 110.093 20.412C110.909 19.948 111.845 19.716 112.901 19.716C113.677 19.716 114.353 19.836 114.929 20.076C115.513 20.316 116.005 20.64 116.405 21.048C116.813 21.456 117.141 21.924 117.389 22.452C117.637 22.972 117.817 23.528 117.929 24.12C118.041 24.704 118.097 25.288 118.097 25.872V33H116.321ZM106.949 33V20.04H108.545V23.232H108.725V33H106.949Z" fill="white"/>
<path d="M121.68 33V15.72H128.352C128.52 15.72 128.708 15.728 128.916 15.744C129.132 15.752 129.348 15.776 129.564 15.816C130.468 15.952 131.232 16.268 131.856 16.764C132.488 17.252 132.964 17.868 133.284 18.612C133.612 19.356 133.776 20.18 133.776 21.084C133.776 21.98 133.612 22.8 133.284 23.544C132.956 24.288 132.476 24.908 131.844 25.404C131.22 25.892 130.46 26.204 129.564 26.34C129.348 26.372 129.132 26.396 128.916 26.412C128.708 26.428 128.52 26.436 128.352 26.436H123.444V33H121.68ZM123.444 24.756H128.304C128.448 24.756 128.616 24.748 128.808 24.732C129 24.716 129.188 24.688 129.372 24.648C129.964 24.52 130.448 24.276 130.824 23.916C131.208 23.556 131.492 23.128 131.676 22.632C131.868 22.136 131.964 21.62 131.964 21.084C131.964 20.548 131.868 20.032 131.676 19.536C131.492 19.032 131.208 18.6 130.824 18.24C130.448 17.88 129.964 17.636 129.372 17.508C129.188 17.468 129 17.444 128.808 17.436C128.616 17.42 128.448 17.412 128.304 17.412H123.444V24.756ZM141.506 33.36C140.218 33.36 139.118 33.068 138.206 32.484C137.294 31.9 136.594 31.092 136.106 30.06C135.618 29.028 135.374 27.844 135.374 26.508C135.374 25.148 135.622 23.956 136.118 22.932C136.614 21.908 137.318 21.112 138.23 20.544C139.15 19.968 140.242 19.68 141.506 19.68C142.802 19.68 143.906 19.972 144.818 20.556C145.738 21.132 146.438 21.936 146.918 22.968C147.406 23.992 147.65 25.172 147.65 26.508C147.65 27.868 147.406 29.064 146.918 30.096C146.43 31.12 145.726 31.92 144.806 32.496C143.886 33.072 142.786 33.36 141.506 33.36ZM141.506 31.668C142.946 31.668 144.018 31.192 144.722 30.24C145.426 29.28 145.778 28.036 145.778 26.508C145.778 24.94 145.422 23.692 144.71 22.764C144.006 21.836 142.938 21.372 141.506 21.372C140.538 21.372 139.738 21.592 139.106 22.032C138.482 22.464 138.014 23.068 137.702 23.844C137.398 24.612 137.246 25.5 137.246 26.508C137.246 28.068 137.606 29.32 138.326 30.264C139.046 31.2 140.106 31.668 141.506 31.668ZM150.537 17.58V15.6H152.301V17.58H150.537ZM150.537 33V20.04H152.301V33H150.537ZM165.259 33V26.388C165.259 25.668 165.191 25.008 165.055 24.408C164.919 23.8 164.699 23.272 164.395 22.824C164.099 22.368 163.711 22.016 163.231 21.768C162.759 21.52 162.183 21.396 161.503 21.396C160.879 21.396 160.327 21.504 159.847 21.72C159.375 21.936 158.975 22.248 158.647 22.656C158.327 23.056 158.083 23.544 157.915 24.12C157.747 24.696 157.663 25.352 157.663 26.088L156.415 25.812C156.415 24.484 156.647 23.368 157.111 22.464C157.575 21.56 158.215 20.876 159.031 20.412C159.847 19.948 160.783 19.716 161.839 19.716C162.615 19.716 163.291 19.836 163.867 20.076C164.451 20.316 164.943 20.64 165.343 21.048C165.751 21.456 166.079 21.924 166.327 22.452C166.575 22.972 166.755 23.528 166.867 24.12C166.979 24.704 167.035 25.288 167.035 25.872V33H165.259ZM155.887 33V20.04H157.483V23.232H157.663V33H155.887ZM177.205 33C176.477 33.152 175.757 33.212 175.045 33.18C174.341 33.148 173.709 32.996 173.149 32.724C172.597 32.452 172.177 32.028 171.889 31.452C171.657 30.972 171.529 30.488 171.505 30C171.489 29.504 171.481 28.94 171.481 28.308V16.44H173.233V28.236C173.233 28.78 173.237 29.236 173.245 29.604C173.261 29.964 173.345 30.284 173.497 30.564C173.785 31.1 174.241 31.42 174.865 31.524C175.497 31.628 176.277 31.604 177.205 31.452V33ZM168.709 21.552V20.04H177.205V21.552H168.709Z" fill="white"/>
</svg>
